<?xml version="1.0" standalone="no"?>
<!DOCTYPE svg PUBLIC "-//W3C//DTD SVG 20010904//EN"
 "http://www.w3.org/TR/2001/REC-SVG-20010904/DTD/svg10.dtd">
<svg version="1.0" xmlns="http://www.w3.org/2000/svg"
 width="1500.000000pt" height="1500.000000pt" viewBox="0 0 1500.000000 1500.000000"
 preserveAspectRatio="xMidYMid meet">

<g transform="translate(0.000000,1500.000000) scale(0.100000,-0.100000)"
fill="#000000" stroke="none">
<path d="M2882 11668 l3 -33 200 -6 c140 -4 218 -11 259 -23 129 -36 235 -115
289 -214 59 -109 57 3 57 -2287 l0 -2100 35 0 35 0 0 2125 c0 1234 4 2120 9
2115 5 -6 644 -963 1420 -2127 l1411 -2118 270 0 270 0 2 2118 c3 2034 4 2119
22 2172 47 140 116 222 231 277 105 50 184 63 383 63 l172 0 0 35 0 35 -840 0
-840 0 0 -34 0 -34 198 -4 c180 -4 204 -7 277 -31 158 -52 248 -140 303 -296
15 -42 17 -204 19 -1896 2 -1602 0 -1847 -12 -1830 -8 11 -630 943 -1382 2070
l-1368 2050 -713 3 -713 2 3 -32z"/>
<path d="M7490 9146 l0 -33 198 -6 c208 -5 267 -15 370 -62 66 -30 150 -110
186 -175 55 -101 56 -111 56 -1027 l0 -843 35 0 35 0 2 866 3 866 578 -866
577 -866 416 0 c243 0 414 4 412 9 -1 5 -327 495 -723 1090 l-720 1080 -712 1
-713 0 0 -34z"/>
<path d="M10880 9146 l0 -34 193 -5 c205 -5 266 -16 361 -64 107 -54 172 -128
218 -249 l23 -59 3 -867 3 -868 34 0 34 0 3 853 c3 777 5 857 21 911 49 166
162 272 342 322 42 11 118 18 253 21 l192 5 0 34 0 34 -840 0 -840 0 0 -34z"/>
<path d="M8297 4983 c-3 -469 -5 -544 -20 -586 -57 -167 -161 -260 -345 -309
-59 -15 -121 -21 -259 -25 l-183 -6 0 -33 0 -34 840 0 840 0 0 34 0 33 -172 6
c-191 6 -280 22 -373 66 -111 52 -186 138 -227 261 -22 63 -23 80 -26 598 l-3
532 -34 0 -34 0 -4 -537z"/>
<path d="M10537 5491 c10 -16 239 -360 508 -765 l490 -735 108 -1 107 0 0 765
0 765 -35 0 -35 0 -2 -241 -3 -241 -160 241 -160 240 -418 1 -419 0 19 -29z"/>
<path d="M5592 5254 c-16 -11 -22 -24 -20 -42 3 -26 14 -35 83 -64 40 -18 46
-54 11 -68 -28 -10 -52 -5 -79 18 -25 22 -32 7 -8 -17 27 -27 91 -29 114 -3
38 41 15 76 -66 102 -33 10 -38 16 -35 38 3 24 7 27 38 26 19 0 44 -4 55 -8
17 -7 17 -5 -4 13 -28 25 -58 27 -89 5z"/>
<path d="M5960 5260 c0 -5 11 -10 25 -10 25 0 25 0 25 -95 0 -57 4 -95 10 -95
6 0 10 38 10 95 0 95 0 95 25 95 14 0 25 5 25 10 0 6 -27 10 -60 10 -33 0 -60
-4 -60 -10z"/>
<path d="M6404 5254 c-4 -10 -22 -55 -41 -99 -35 -84 -38 -95 -25 -95 4 0 13
14 19 30 10 27 15 30 56 30 40 0 46 -3 57 -30 7 -16 16 -30 21 -30 5 0 9 2 9
4 0 6 -81 200 -86 205 -2 2 -7 -5 -10 -15z m40 -102 c7 -20 4 -22 -28 -22 -41
0 -42 4 -20 61 l17 41 12 -29 c7 -16 16 -39 19 -51z"/>
<path d="M6808 5254 c-15 -8 -35 -28 -44 -45 -49 -96 72 -194 153 -125 15 13
25 28 20 32 -4 4 -17 -2 -30 -14 -39 -37 -98 -28 -122 19 -22 42 -18 67 15
101 26 25 36 29 62 24 18 -3 42 -16 55 -28 24 -23 29 -19 13 12 -9 17 -59 41
-84 40 -6 -1 -23 -7 -38 -16z"/>
<path d="M3740 5160 c0 -60 4 -100 10 -100 6 0 10 20 10 45 l0 45 44 0 c25 0
48 5 51 10 4 6 -13 10 -44 10 l-51 0 0 39 0 40 53 4 52 3 -62 2 -63 2 0 -100z"/>
<path d="M4120 5180 c0 -94 16 -120 75 -120 59 0 75 26 75 120 0 47 -4 80 -10
80 -6 0 -10 -33 -10 -78 0 -87 -8 -102 -55 -102 -47 0 -55 15 -55 102 0 45 -4
78 -10 78 -6 0 -10 -33 -10 -80z"/>
<path d="M4550 5160 l0 -100 45 0 c25 0 45 5 45 10 0 6 -16 10 -35 10 l-35 0
0 90 c0 53 -4 90 -10 90 -6 0 -10 -40 -10 -100z"/>
<path d="M4900 5160 l0 -100 45 0 c25 0 45 5 45 10 0 6 -16 10 -35 10 l-35 0
0 90 c0 53 -4 90 -10 90 -6 0 -10 -40 -10 -100z"/>
<path d="M7220 5160 c0 -60 4 -100 10 -100 6 0 10 21 10 47 l0 47 33 -47 c17
-26 38 -47 45 -47 8 0 -1 19 -22 49 -20 27 -36 52 -36 56 0 4 14 25 31 47 17
21 28 42 24 46 -7 7 -24 -10 -57 -59 l-17 -24 0 43 c-1 23 -5 42 -11 42 -6 0
-10 -40 -10 -100z"/>
</g>
</svg>
